# xmcd
#
# Track frame offsets: 
#        183
#        23503
#        37268
#        52618
#        70710
#        89865
#        107063
#        120908
#        147840
#        165163
#        180823
#        191933
#        205680
#        218155
#        233290
#        246085
#        263403
#
# Disc length: 3779 seconds
#
# Revision: 1
# Processed by: cddbd v1.5.2PL0 Copyright (c) Steve Scherf et al.
# Submitted via: ExactAudioCopy v0.95b4
#
DISCID=d20ec111
DTITLE=Various Artist - Baladas de Platino - CD2
DYEAR=1993
DGENRE=Latin
TTITLE0=Roberto Carlos - Detalles
TTITLE1=Luis Aguile - Cuando Sali De Cuba
TTITLE2=Hermanos Carrion - Magia Blanca
TTITLE3=Lolita - Lo Voy A Dividir
TTITLE4=Danny Daniel - El Amor El Amor
TTITLE5=Rafaella Carra - Hay Que Venir Al Sur
TTITLE6=Billy Pontony - Limosnero De Amor
TTITLE7=Ana Belen - Vuelo Blanco De Gaviota
TTITLE8=Genesis - Tu
TTITLE9=Albert Hammond - Eres Toda Una Mujer
TTITLE10=Claudia de Colombia - Tu Me Haces Falta
TTITLE11=Daniel Magal - Cara de Gitana
TTITLE12=Joe Dassin - A Ti
TTITLE13=Jose Velez - Solamente Tu
TTITLE14=Gretta - Novia y Amante
TTITLE15=Top 10 - Donde Estan Tus Ojos Negros
TTITLE16=Umberto Tozzi - Tu
EXTD=
EXTT0=
EXTT1=
EXTT2=
EXTT3=
EXTT4=
EXTT5=
EXTT6=
EXTT7=
EXTT8=
EXTT9=
EXTT10=
EXTT11=
EXTT12=
EXTT13=
EXTT14=
EXTT15=
EXTT16=
PLAYORDER=
